<?xml version="1.0" encoding="utf-8"?>
<!-- Generator: Adobe Illustrator 23.1.1, SVG Export Plug-In . SVG Version: 6.00 Build 0)  -->
<svg version="1.1" id="Layer_1" xmlns="http://www.w3.org/2000/svg" xmlns:xlink="http://www.w3.org/1999/xlink" x="0px" y="0px"
	 viewBox="0 0 572.97 217.33" style="enable-background:new 0 0 572.97 217.33;" xml:space="preserve">
<style type="text/css">
	.st0{fill:#001378;}
	.st1{fill:#2A307C;}
	.st2{fill:none;stroke:#000000;stroke-miterlimit:10;}
	.st3{fill:#001588;}
	.st4{fill:#FFFFFF;}
</style>
<g>
	<g>
		<path class="st0" d="M204.12,41.33h-31.2v21.86h24.24V75.5h-24.24v35.14h-18.36V29.18h49.56V41.33z"/>
		<path class="st0" d="M277.05,72.48c0,12.85-3.06,22.65-9.18,29.39c-6.12,6.75-14.2,10.12-24.24,10.12
			c-9.93,0-17.98-3.37-24.13-10.12c-6.15-6.75-9.23-16.46-9.23-29.12V68.1c0-11.8,2.87-21.43,8.61-28.88
			c5.74-7.45,14.15-11.18,25.24-11.18c10.83,0,19.03,3.78,24.59,11.34c5.56,7.56,8.34,17.13,8.34,28.72V72.48z M258.59,71.4v-2.21
			c0-10.04-0.86-17.49-2.59-22.35c-1.73-4.86-5.85-7.29-12.36-7.29c-6.01,0-10,2.16-11.96,6.48c-1.96,4.32-2.94,12.04-2.94,23.16v2
			c0,11.19,0.88,18.88,2.64,23.05c1.76,4.18,5.85,6.26,12.25,6.26c5.25,0,9.06-2.25,11.42-6.75
			C257.41,89.25,258.59,81.8,258.59,71.4z"/>
		<path class="st0" d="M343.94,110.64H325.8c-0.14-13.14-1.4-22.52-3.75-28.15c-2.36-5.63-6.09-8.45-11.2-8.45h-4.32v36.6h-18.36
			V29.18h32.07c7.81,0,13.34,1.69,16.6,5.08c3.26,3.38,4.88,7.54,4.88,12.47v4.43c0,4.64-1.42,8.37-4.26,11.17
			c-2.84,2.81-7.11,4.46-12.8,4.97c6.41,1.91,11.22,6.15,14.44,12.71C342.33,86.58,343.94,96.79,343.94,110.64z M323.64,52.83v-2.21
			c0-3.53-0.94-6.05-2.81-7.56c-1.87-1.51-4.64-2.27-8.31-2.27h-5.99v21.54h4.97c4.35,0,7.47-0.79,9.34-2.38
			C322.71,58.37,323.64,55.99,323.64,52.83z"/>
		<path class="st0" d="M407.59,108.43c-1.26,0.83-3.55,1.63-6.86,2.4c-3.31,0.77-7.14,1.16-11.5,1.16
			c-10.98,0-19.93-3.39-26.86-10.18c-6.93-6.78-10.39-16.74-10.39-29.88v-3.29c0-12.24,3.52-22.06,10.55-29.48
			c7.04-7.41,15.86-11.12,26.48-11.12c4.57,0,8.38,0.26,11.44,0.78c3.06,0.52,5.44,1.22,7.13,2.08v12.96
			c-1.55-0.83-3.65-1.57-6.29-2.21c-2.65-0.65-5.75-0.97-9.31-0.97c-6.62,0-11.8,2.57-15.52,7.72c-3.73,5.15-5.59,12.25-5.59,21.32
			v1.13c0,9.72,1.74,16.9,5.21,21.54c3.47,4.64,8.21,6.96,14.22,6.96c4.07,0,7.54-0.41,10.42-1.21c2.88-0.81,5.17-1.57,6.86-2.29
			V108.43z"/>
		<path class="st0" d="M471.72,110.64h-51.77V29.18h49.56v12.15h-31.2v21.86h24.24V75.5H438.3v23h33.42V110.64z"/>
		<path class="st0" d="M563.71,87h-5.78v23.64h-16.57V87h-35.68l-0.92-15.71l42.16-42.11h11.01v46h5.78V87z M541.58,75.18v-24.8
			l-24.76,24.8H541.58z"/>
		<path class="st0" d="M186.5,170.59c-0.84,0.55-2.36,1.08-4.57,1.6c-2.21,0.52-4.76,0.77-7.66,0.77c-7.32,0-13.29-2.26-17.91-6.78
			c-4.62-4.52-6.93-11.16-6.93-19.92v-2.2c0-8.16,2.34-14.71,7.04-19.65c4.69-4.94,10.57-7.41,17.65-7.41
			c3.05,0,5.59,0.17,7.63,0.52c2.04,0.35,3.62,0.81,4.75,1.39v8.64c-1.03-0.55-2.43-1.04-4.19-1.47c-1.76-0.43-3.83-0.65-6.21-0.65
			c-4.42,0-7.86,1.71-10.35,5.14c-2.48,3.43-3.72,8.17-3.72,14.22v0.76c0,6.48,1.16,11.27,3.47,14.36c2.31,3.09,5.48,4.64,9.48,4.64
			c2.71,0,5.03-0.27,6.95-0.81c1.92-0.54,3.44-1.05,4.57-1.53V170.59z"/>
		<path class="st0" d="M233.08,172.06h-12.24v-23.36h-13.86v23.36h-12.24v-54.31h12.24v22.6h13.86v-22.6h12.24V172.06z"/>
		<path class="st0" d="M287.06,172.06h-12.53l-3.98-13.03h-17.89l-4.12,13.03h-9.99l18.28-54.31h11.41L287.06,172.06z
			 M267.94,151.19l-6.69-19.95l-6.23,19.95H267.94z"/>
		<path class="st0" d="M332.98,172.06h-5.25l-27.17-34.12v34.12h-8.71v-54.31h6.55l25.88,32.12v-32.12h8.71V172.06z"/>
		<path class="st0" d="M383.48,146.04c0,8.81-1.75,15.34-5.24,19.61c-3.49,4.27-8.66,6.41-15.49,6.41h-19.9v-54.31h17.85
			c8.16,0,13.99,2.33,17.51,7c3.51,4.67,5.27,11.03,5.27,19.09V146.04z M371.17,145.69v-1.48c0-5.95-1.03-10.5-3.09-13.64
			c-2.06-3.14-4.87-4.71-8.42-4.71h-4.57v38.11h5.61c3.48,0,6.09-1.27,7.85-3.8C370.29,157.64,371.17,152.81,371.17,145.69z"/>
		<path class="st0" d="M424.18,172.06h-32.39v-54.31h12.24v46.21h20.15V172.06z"/>
		<path class="st0" d="M466.83,172.06h-34.51v-54.31h33.04v8.1h-20.8v14.57h16.16v8.21h-16.16v15.33h22.28V172.06z"/>
		<path class="st0" d="M511.49,172.06H499.4c-0.1-8.76-0.93-15.01-2.5-18.77c-1.57-3.76-4.06-5.63-7.47-5.63h-2.88v24.4h-12.24
			v-54.31h21.38c5.21,0,8.89,1.13,11.07,3.38c2.17,2.26,3.26,5.03,3.26,8.31v2.95c0,3.09-0.95,5.58-2.84,7.45
			c-1.9,1.87-4.74,2.97-8.53,3.31c4.27,1.27,7.48,4.1,9.63,8.47C510.42,156.02,511.49,162.83,511.49,172.06z M497.96,133.52v-1.48
			c0-2.35-0.62-4.03-1.87-5.04c-1.25-1.01-3.09-1.51-5.54-1.51h-3.99v14.36h3.31c2.9,0,4.98-0.53,6.23-1.58
			C497.33,137.22,497.96,135.63,497.96,133.52z"/>
		<path class="st0" d="M562.31,117.76l-18.03,31.31v23h-12.24v-21.81l-18.36-32.5h14.3l11.93,21.79l12.67-21.79H562.31z"/>
		<path class="st0" d="M147.21,183.09h9.61v3.09h-0.87c-0.13-0.51-0.26-0.91-0.39-1.21c-0.13-0.3-0.26-0.52-0.4-0.68
			c-0.14-0.15-0.29-0.26-0.46-0.33c-0.16-0.07-0.41-0.1-0.73-0.1h-1.13v9.09c0,0.35,0.02,0.63,0.06,0.84
			c0.04,0.21,0.1,0.37,0.18,0.49c0.08,0.12,0.19,0.21,0.33,0.28c0.14,0.07,0.35,0.14,0.64,0.2v0.44h-4.06v-0.44
			c0.18-0.04,0.33-0.09,0.47-0.13c0.14-0.05,0.25-0.11,0.33-0.17c0.09-0.07,0.16-0.16,0.21-0.26c0.06-0.11,0.1-0.25,0.13-0.43
			c0.03-0.18,0.05-0.45,0.05-0.81v-9.09h-1.12c-0.28,0-0.51,0.03-0.69,0.08c-0.18,0.05-0.35,0.17-0.5,0.33
			c-0.15,0.17-0.29,0.41-0.42,0.72c-0.13,0.31-0.25,0.7-0.36,1.18h-0.88V183.09z"/>
		<path class="st0" d="M160.65,188.12l0.04,0.01c0.46-0.47,0.83-0.8,1.1-0.98c0.27-0.19,0.54-0.33,0.8-0.42
			c0.26-0.09,0.55-0.14,0.85-0.14c0.33,0,0.62,0.04,0.87,0.12c0.25,0.08,0.48,0.19,0.67,0.35c0.19,0.16,0.35,0.35,0.47,0.58
			c0.12,0.23,0.21,0.5,0.27,0.82c0.06,0.32,0.09,0.72,0.09,1.2v3.35c0,0.52,0.02,0.87,0.07,1.05c0.04,0.19,0.12,0.33,0.24,0.44
			c0.12,0.1,0.35,0.2,0.7,0.3v0.44h-3.5v-0.44c0.23-0.07,0.4-0.13,0.5-0.19c0.1-0.05,0.18-0.13,0.25-0.22
			c0.07-0.09,0.12-0.24,0.16-0.44c0.04-0.2,0.06-0.5,0.06-0.9v-2.33c0-0.79-0.04-1.39-0.12-1.81c-0.08-0.42-0.24-0.73-0.47-0.94
			c-0.23-0.21-0.56-0.31-0.98-0.31c-0.24,0-0.45,0.04-0.64,0.12c-0.19,0.08-0.41,0.23-0.66,0.44c-0.25,0.21-0.44,0.43-0.56,0.66
			c-0.13,0.23-0.19,0.46-0.19,0.72v3.4c0,0.4,0.01,0.69,0.03,0.86c0.02,0.17,0.06,0.31,0.12,0.43c0.06,0.12,0.15,0.21,0.27,0.28
			c0.12,0.07,0.31,0.14,0.56,0.21v0.44h-3.52v-0.44c0.26-0.07,0.45-0.14,0.56-0.2c0.11-0.07,0.2-0.15,0.26-0.25
			c0.06-0.1,0.11-0.25,0.14-0.44c0.03-0.19,0.04-0.49,0.04-0.9v-7.43c0-0.57,0-0.96-0.01-1.19c-0.01-0.22-0.03-0.42-0.07-0.57
			c-0.04-0.16-0.09-0.28-0.16-0.37c-0.07-0.09-0.16-0.16-0.27-0.21c-0.12-0.05-0.33-0.11-0.63-0.16v-0.46l2.14-0.09h0.53V188.12z"/>
		<path class="st0" d="M175.4,193.7c-0.38,0.4-0.73,0.71-1.04,0.93c-0.32,0.22-0.66,0.4-1.04,0.53c-0.38,0.13-0.8,0.19-1.25,0.19
			c-1.22,0-2.14-0.36-2.76-1.1c-0.62-0.73-0.93-1.81-0.93-3.24c0-0.88,0.16-1.66,0.48-2.34c0.32-0.67,0.77-1.2,1.35-1.56
			c0.59-0.37,1.26-0.55,2.03-0.55c0.6,0,1.11,0.09,1.53,0.29c0.42,0.19,0.76,0.45,1.01,0.78c0.25,0.33,0.45,0.74,0.59,1.24
			s0.22,1.15,0.24,1.96h-5.59V191c0,0.7,0.08,1.29,0.24,1.76c0.16,0.48,0.41,0.85,0.77,1.12c0.36,0.27,0.82,0.41,1.4,0.41
			c0.49,0,0.92-0.09,1.31-0.27c0.39-0.18,0.77-0.47,1.16-0.88L175.4,193.7z M173.91,190.1c-0.04-0.64-0.12-1.16-0.24-1.57
			c-0.12-0.41-0.31-0.72-0.56-0.93c-0.25-0.22-0.57-0.32-0.98-0.32c-0.61,0-1.1,0.24-1.46,0.73c-0.36,0.49-0.58,1.19-0.64,2.09
			H173.91z"/>
		<path class="st0" d="M184.11,189.95v3.02c0,0.43,0.02,0.74,0.05,0.93c0.03,0.19,0.08,0.34,0.15,0.44c0.06,0.1,0.15,0.18,0.27,0.24
			c0.11,0.06,0.3,0.13,0.58,0.21v0.44h-3.75v-0.44c0.37-0.09,0.61-0.2,0.74-0.31c0.12-0.12,0.21-0.28,0.24-0.49
			c0.04-0.21,0.06-0.54,0.06-0.98v-7.68c0-0.41-0.02-0.71-0.04-0.89c-0.03-0.19-0.08-0.33-0.15-0.44c-0.07-0.1-0.16-0.19-0.27-0.25
			c-0.11-0.06-0.31-0.13-0.58-0.21v-0.43h4.4c1.39,0,2.42,0.25,3.11,0.75c0.69,0.5,1.03,1.29,1.03,2.34c0,0.81-0.22,1.5-0.67,2.07
			c-0.45,0.57-1.12,1.01-2.01,1.33v0.07c0.36,0.15,0.67,0.36,0.93,0.64c0.26,0.28,0.54,0.7,0.86,1.28l0.8,1.46
			c0.23,0.43,0.43,0.75,0.59,0.98c0.17,0.22,0.34,0.4,0.51,0.52c0.17,0.12,0.4,0.2,0.68,0.25v0.44h-2.46
			c-0.23-0.31-0.44-0.65-0.64-1.01c-0.2-0.36-0.4-0.73-0.59-1.1l-0.78-1.48c-0.24-0.45-0.43-0.78-0.58-1
			c-0.15-0.21-0.29-0.36-0.42-0.45c-0.13-0.08-0.26-0.15-0.41-0.18c-0.14-0.03-0.36-0.05-0.65-0.05H184.11z M184.11,183.91v5.28h1
			c0.51,0,0.93-0.04,1.25-0.11c0.32-0.07,0.62-0.22,0.89-0.42c0.27-0.21,0.49-0.5,0.65-0.87c0.16-0.37,0.24-0.82,0.24-1.36
			c0-0.56-0.1-1.03-0.29-1.4c-0.19-0.37-0.48-0.66-0.88-0.85c-0.39-0.19-0.92-0.29-1.58-0.29
			C184.87,183.87,184.44,183.88,184.11,183.91z"/>
		<path class="st0" d="M192.48,194.78c0.23-0.07,0.4-0.13,0.49-0.19c0.1-0.05,0.18-0.13,0.25-0.22c0.07-0.09,0.12-0.24,0.16-0.44
			c0.04-0.2,0.06-0.5,0.06-0.91v-3.87c0-0.38-0.01-0.68-0.02-0.91c-0.01-0.23-0.05-0.42-0.12-0.56c-0.07-0.14-0.18-0.24-0.32-0.31
			c-0.15-0.07-0.35-0.13-0.62-0.17v-0.47l2.07-0.08h0.54v6.35c0,0.51,0.02,0.86,0.07,1.06c0.05,0.2,0.14,0.35,0.27,0.45
			c0.13,0.1,0.35,0.19,0.65,0.27v0.44h-3.48V194.78z M195.02,183.24v1.72h-1.63v-1.72H195.02z"/>
		<path class="st0" d="M205.5,187.62l-1.64-0.06l-0.08,0.1c0.18,0.18,0.33,0.43,0.43,0.75c0.11,0.32,0.16,0.66,0.16,1.03
			c0,0.96-0.3,1.71-0.89,2.23c-0.59,0.52-1.44,0.79-2.54,0.79c-0.49,0-0.91-0.06-1.27-0.19c-0.45,0.34-0.67,0.68-0.67,1.01
			c0,0.22,0.04,0.39,0.13,0.5c0.09,0.11,0.23,0.19,0.43,0.24c0.2,0.05,0.5,0.07,0.9,0.07h2.13c0.63,0,1.14,0.1,1.54,0.29
			c0.4,0.2,0.68,0.46,0.85,0.79c0.17,0.33,0.25,0.71,0.25,1.15c0,0.56-0.16,1.05-0.48,1.49c-0.32,0.44-0.78,0.77-1.39,1.02
			c-0.6,0.24-1.31,0.36-2.11,0.36c-0.6,0-1.14-0.04-1.64-0.11c-0.5-0.07-0.92-0.19-1.27-0.36c-0.35-0.17-0.62-0.39-0.82-0.67
			c-0.19-0.28-0.29-0.62-0.29-1.03c0-0.37,0.12-0.71,0.37-1.02c0.25-0.31,0.6-0.57,1.06-0.8c-0.28-0.11-0.5-0.28-0.66-0.5
			c-0.16-0.22-0.24-0.48-0.24-0.77c0-0.34,0.09-0.65,0.29-0.93c0.19-0.28,0.52-0.6,1-0.96c-0.43-0.25-0.75-0.59-0.97-1.01
			c-0.22-0.43-0.33-0.91-0.33-1.46c0-0.51,0.09-0.95,0.25-1.33c0.17-0.38,0.4-0.69,0.7-0.93c0.3-0.25,0.65-0.43,1.06-0.55
			c0.41-0.12,0.85-0.18,1.32-0.18c0.43,0,0.85,0.05,1.27,0.15h3.14V187.62z M199.56,195.36c-0.3,0.22-0.53,0.46-0.68,0.71
			c-0.15,0.25-0.23,0.54-0.23,0.86c0,0.53,0.21,0.92,0.64,1.18c0.42,0.25,1.07,0.38,1.94,0.38c0.53,0,0.99-0.07,1.37-0.21
			c0.38-0.14,0.67-0.35,0.88-0.61c0.2-0.27,0.3-0.58,0.3-0.93c0-0.16-0.02-0.33-0.06-0.48c-0.04-0.16-0.12-0.3-0.24-0.42
			c-0.12-0.13-0.28-0.22-0.49-0.3c-0.21-0.07-0.49-0.11-0.83-0.11h-1.32C200.35,195.41,199.93,195.39,199.56,195.36z M199.34,189.42
			c0,0.74,0.15,1.31,0.45,1.71c0.3,0.4,0.74,0.6,1.31,0.6c0.3,0,0.56-0.06,0.77-0.17c0.21-0.12,0.39-0.28,0.52-0.48
			c0.13-0.2,0.23-0.43,0.29-0.7c0.06-0.26,0.09-0.54,0.09-0.83c0-0.52-0.07-0.96-0.22-1.31c-0.15-0.35-0.35-0.6-0.6-0.77
			c-0.25-0.16-0.55-0.25-0.88-0.25c-0.56,0-0.99,0.19-1.29,0.56C199.49,188.18,199.34,188.72,199.34,189.42z"/>
		<path class="st0" d="M208.78,188.12l0.04,0.01c0.46-0.47,0.83-0.8,1.1-0.98c0.27-0.19,0.54-0.33,0.8-0.42
			c0.26-0.09,0.55-0.14,0.85-0.14c0.33,0,0.62,0.04,0.87,0.12c0.25,0.08,0.48,0.19,0.67,0.35c0.19,0.16,0.35,0.35,0.47,0.58
			c0.12,0.23,0.21,0.5,0.27,0.82c0.06,0.32,0.09,0.72,0.09,1.2v3.35c0,0.52,0.02,0.87,0.07,1.05c0.04,0.19,0.12,0.33,0.24,0.44
			c0.12,0.1,0.35,0.2,0.7,0.3v0.44h-3.5v-0.44c0.23-0.07,0.4-0.13,0.5-0.19c0.1-0.05,0.18-0.13,0.25-0.22
			c0.07-0.09,0.12-0.24,0.16-0.44c0.04-0.2,0.06-0.5,0.06-0.9v-2.33c0-0.79-0.04-1.39-0.12-1.81c-0.08-0.42-0.24-0.73-0.47-0.94
			c-0.23-0.21-0.56-0.31-0.98-0.31c-0.24,0-0.45,0.04-0.64,0.12c-0.19,0.08-0.41,0.23-0.66,0.44c-0.25,0.21-0.44,0.43-0.56,0.66
			c-0.13,0.23-0.19,0.46-0.19,0.72v3.4c0,0.4,0.01,0.69,0.03,0.86c0.02,0.17,0.06,0.31,0.12,0.43c0.06,0.12,0.15,0.21,0.27,0.28
			c0.12,0.07,0.31,0.14,0.56,0.21v0.44h-3.52v-0.44c0.26-0.07,0.45-0.14,0.56-0.2c0.11-0.07,0.2-0.15,0.26-0.25
			c0.06-0.1,0.11-0.25,0.14-0.44c0.03-0.19,0.04-0.49,0.04-0.9v-7.43c0-0.57,0-0.96-0.01-1.19c-0.01-0.22-0.03-0.42-0.07-0.57
			c-0.04-0.16-0.09-0.28-0.16-0.37c-0.07-0.09-0.16-0.16-0.27-0.21c-0.12-0.05-0.33-0.11-0.63-0.16v-0.46l2.14-0.09h0.53V188.12z"/>
		<path class="st0" d="M215.9,187.17c0.3-0.05,0.54-0.13,0.72-0.25c0.18-0.12,0.33-0.27,0.43-0.46c0.1-0.19,0.19-0.42,0.24-0.7
			c0.06-0.28,0.12-0.69,0.19-1.23h1.26v2.19h2.87v0.9h-2.87v3.95c0,0.57,0.02,1.03,0.07,1.37c0.05,0.34,0.14,0.61,0.27,0.8
			c0.13,0.19,0.28,0.33,0.44,0.41c0.17,0.08,0.38,0.12,0.64,0.12c0.24,0,0.46-0.05,0.67-0.15c0.21-0.1,0.41-0.24,0.61-0.42l0.4,0.48
			c-0.42,0.41-0.82,0.71-1.2,0.89c-0.38,0.18-0.77,0.28-1.17,0.28c-0.76,0-1.33-0.23-1.71-0.68c-0.37-0.45-0.56-1.16-0.56-2.13
			v-4.93h-1.31V187.17z"/>
		<path class="st0" d="M234.99,183.35v2.46h-0.88c-0.14-0.51-0.32-0.92-0.54-1.23c-0.22-0.31-0.47-0.52-0.76-0.65
			c-0.29-0.13-0.64-0.2-1.05-0.2c-0.61,0-1.15,0.2-1.63,0.61c-0.48,0.41-0.85,1.02-1.12,1.83c-0.27,0.81-0.41,1.8-0.41,2.95
			c0,1.16,0.11,2.15,0.34,2.97c0.22,0.82,0.56,1.44,1,1.86c0.44,0.42,0.98,0.63,1.62,0.63c0.49,0,0.88-0.07,1.19-0.21
			c0.31-0.14,0.57-0.36,0.78-0.66c0.21-0.3,0.41-0.75,0.6-1.33h0.88v2.54c-0.56,0.15-1.13,0.26-1.71,0.33
			c-0.58,0.07-1.22,0.11-1.92,0.11c-1.5,0-2.64-0.51-3.41-1.53c-0.77-1.02-1.15-2.54-1.15-4.56c0-1.27,0.2-2.38,0.6-3.33
			c0.4-0.95,0.99-1.69,1.76-2.21c0.78-0.52,1.7-0.78,2.78-0.78c0.54,0,1.04,0.03,1.49,0.08
			C233.88,183.09,234.41,183.19,234.99,183.35z"/>
		<path class="st0" d="M239.21,188.12l0.04,0.01c0.46-0.47,0.83-0.8,1.1-0.98c0.27-0.19,0.54-0.33,0.8-0.42
			c0.26-0.09,0.55-0.14,0.85-0.14c0.33,0,0.62,0.04,0.87,0.12c0.25,0.08,0.48,0.19,0.67,0.35c0.19,0.16,0.35,0.35,0.47,0.58
			c0.12,0.23,0.21,0.5,0.27,0.82c0.06,0.32,0.09,0.72,0.09,1.2v3.35c0,0.52,0.02,0.87,0.07,1.05c0.04,0.19,0.12,0.33,0.24,0.44
			c0.12,0.1,0.35,0.2,0.7,0.3v0.44h-3.5v-0.44c0.23-0.07,0.4-0.13,0.5-0.19c0.1-0.05,0.18-0.13,0.25-0.22
			c0.07-0.09,0.12-0.24,0.16-0.44c0.04-0.2,0.06-0.5,0.06-0.9v-2.33c0-0.79-0.04-1.39-0.12-1.81c-0.08-0.42-0.24-0.73-0.47-0.94
			c-0.23-0.21-0.56-0.31-0.98-0.31c-0.24,0-0.45,0.04-0.64,0.12c-0.19,0.08-0.41,0.23-0.66,0.44c-0.25,0.21-0.44,0.43-0.56,0.66
			c-0.13,0.23-0.19,0.46-0.19,0.72v3.4c0,0.4,0.01,0.69,0.03,0.86c0.02,0.17,0.06,0.31,0.12,0.43c0.06,0.12,0.15,0.21,0.27,0.28
			c0.12,0.07,0.31,0.14,0.56,0.21v0.44h-3.52v-0.44c0.26-0.07,0.45-0.14,0.56-0.2c0.11-0.07,0.2-0.15,0.26-0.25
			c0.06-0.1,0.11-0.25,0.14-0.44c0.03-0.19,0.04-0.49,0.04-0.9v-7.43c0-0.57,0-0.96-0.01-1.19c-0.01-0.22-0.03-0.42-0.07-0.57
			c-0.04-0.16-0.09-0.28-0.16-0.37c-0.07-0.09-0.16-0.16-0.27-0.21c-0.12-0.05-0.33-0.11-0.63-0.16v-0.46l2.14-0.09h0.53V188.12z"/>
		<path class="st0" d="M250.73,195.36c-1.23,0-2.17-0.36-2.82-1.09c-0.65-0.72-0.97-1.8-0.97-3.22c0-0.98,0.17-1.8,0.51-2.48
			c0.34-0.68,0.81-1.18,1.4-1.51c0.59-0.33,1.27-0.49,2.03-0.49c1.27,0,2.23,0.37,2.88,1.11c0.65,0.74,0.98,1.8,0.98,3.18
			c0,0.98-0.16,1.81-0.49,2.49c-0.33,0.67-0.79,1.18-1.39,1.51C252.25,195.19,251.55,195.36,250.73,195.36z M248.62,190.86
			c0,1.22,0.19,2.16,0.58,2.81c0.39,0.65,0.94,0.98,1.67,0.98c0.4,0,0.73-0.1,1.01-0.29c0.28-0.19,0.5-0.45,0.68-0.78
			c0.17-0.33,0.3-0.7,0.38-1.13c0.08-0.43,0.12-0.88,0.12-1.34c0-0.87-0.1-1.59-0.29-2.17c-0.19-0.57-0.46-1-0.79-1.27
			c-0.33-0.27-0.71-0.4-1.14-0.4c-0.72,0-1.27,0.31-1.65,0.93C248.81,188.83,248.62,189.71,248.62,190.86z"/>
		<path class="st0" d="M256.52,194.78c0.23-0.07,0.4-0.13,0.49-0.19c0.1-0.05,0.18-0.13,0.25-0.22c0.07-0.09,0.12-0.24,0.16-0.44
			c0.04-0.2,0.06-0.5,0.06-0.91v-3.87c0-0.38,0-0.68-0.02-0.91c-0.01-0.23-0.05-0.42-0.12-0.56c-0.07-0.14-0.18-0.24-0.32-0.31
			c-0.15-0.07-0.35-0.13-0.62-0.17v-0.47l2.07-0.08h0.54v6.35c0,0.51,0.02,0.86,0.07,1.06c0.05,0.2,0.14,0.35,0.27,0.45
			c0.13,0.1,0.35,0.19,0.65,0.27v0.44h-3.48V194.78z M259.06,183.24v1.72h-1.63v-1.72H259.06z"/>
		<path class="st0" d="M268.19,186.93v1.86h-1.13c-0.1-0.39-0.22-0.69-0.37-0.91c-0.15-0.22-0.32-0.38-0.52-0.47
			c-0.19-0.09-0.44-0.13-0.73-0.13c-0.42,0-0.78,0.13-1.1,0.4c-0.32,0.27-0.57,0.67-0.76,1.22c-0.19,0.54-0.28,1.21-0.28,2
			c0,0.5,0.04,0.96,0.11,1.38c0.07,0.42,0.19,0.77,0.36,1.07c0.17,0.3,0.4,0.53,0.68,0.69c0.29,0.17,0.64,0.25,1.06,0.25
			c0.41,0,0.79-0.08,1.14-0.24c0.35-0.16,0.72-0.44,1.1-0.84l0.51,0.59c-0.3,0.33-0.57,0.59-0.8,0.77
			c-0.23,0.18-0.48,0.33-0.74,0.45c-0.26,0.12-0.52,0.21-0.78,0.27c-0.26,0.06-0.54,0.08-0.84,0.08c-1.12,0-1.97-0.37-2.57-1.11
			c-0.59-0.74-0.89-1.82-0.89-3.22c0-0.88,0.17-1.65,0.5-2.33c0.33-0.68,0.8-1.2,1.39-1.57c0.6-0.37,1.29-0.55,2.07-0.55
			c0.49,0,0.93,0.03,1.34,0.08C267.36,186.71,267.78,186.8,268.19,186.93z"/>
		<path class="st0" d="M276.69,193.7c-0.38,0.4-0.73,0.71-1.04,0.93c-0.32,0.22-0.67,0.4-1.04,0.53c-0.38,0.13-0.8,0.19-1.25,0.19
			c-1.22,0-2.14-0.36-2.76-1.1c-0.62-0.73-0.93-1.81-0.93-3.24c0-0.88,0.16-1.66,0.48-2.34c0.32-0.67,0.77-1.2,1.35-1.56
			c0.59-0.37,1.26-0.55,2.03-0.55c0.6,0,1.11,0.09,1.53,0.29c0.42,0.19,0.76,0.45,1.01,0.78c0.25,0.33,0.45,0.74,0.59,1.24
			c0.14,0.5,0.22,1.15,0.24,1.96h-5.6V191c0,0.7,0.08,1.29,0.24,1.76c0.16,0.48,0.41,0.85,0.77,1.12c0.36,0.27,0.82,0.41,1.4,0.41
			c0.49,0,0.92-0.09,1.31-0.27c0.39-0.18,0.77-0.47,1.16-0.88L276.69,193.7z M275.2,190.1c-0.03-0.64-0.12-1.16-0.24-1.57
			c-0.12-0.41-0.31-0.72-0.56-0.93c-0.25-0.22-0.58-0.32-0.98-0.32c-0.61,0-1.1,0.24-1.46,0.73c-0.36,0.49-0.58,1.19-0.64,2.09
			H275.2z"/>
		<path class="st0" d="M287.61,193.94l-0.13-0.04c-0.52,0.53-1,0.9-1.45,1.12c-0.45,0.22-0.93,0.33-1.44,0.33
			c-0.45,0-0.85-0.09-1.19-0.26c-0.34-0.17-0.61-0.42-0.79-0.74c-0.18-0.32-0.27-0.68-0.27-1.1c0-0.86,0.43-1.53,1.28-2
			c0.85-0.47,2.14-0.74,3.85-0.82v-0.58c0-0.61-0.06-1.1-0.18-1.46c-0.12-0.36-0.3-0.62-0.56-0.78c-0.25-0.16-0.59-0.25-1.02-0.25
			c-0.46,0-0.83,0.12-1.11,0.37c-0.28,0.24-0.49,0.61-0.63,1.09h-1.16v-1.16c0.57-0.3,1.04-0.51,1.42-0.65
			c0.38-0.14,0.76-0.25,1.14-0.33c0.38-0.08,0.76-0.12,1.16-0.12c0.58,0,1.06,0.09,1.41,0.28c0.36,0.19,0.62,0.47,0.8,0.86
			c0.18,0.39,0.27,0.96,0.27,1.74v3.09c0,0.44,0,0.75,0.01,0.93c0.01,0.18,0.02,0.35,0.05,0.5c0.03,0.16,0.07,0.28,0.13,0.37
			c0.06,0.09,0.15,0.17,0.26,0.23c0.11,0.07,0.3,0.13,0.56,0.2v0.44h-2.43L287.61,193.94z M287.45,191.16
			c-1.2,0.01-2.1,0.17-2.7,0.48c-0.6,0.31-0.9,0.77-0.9,1.39c0,0.34,0.07,0.6,0.2,0.8c0.13,0.19,0.31,0.33,0.51,0.4
			c0.21,0.07,0.45,0.11,0.74,0.11c0.4,0,0.77-0.1,1.1-0.29c0.33-0.2,0.58-0.44,0.77-0.75c0.18-0.3,0.28-0.6,0.28-0.9V191.16z"/>
		<path class="st0" d="M290.82,187.17c0.29-0.05,0.54-0.13,0.72-0.25c0.18-0.12,0.33-0.27,0.43-0.46c0.1-0.19,0.19-0.42,0.24-0.7
			c0.06-0.28,0.12-0.69,0.19-1.23h1.26v2.19h2.87v0.9h-2.87v3.95c0,0.57,0.02,1.03,0.07,1.37c0.05,0.34,0.14,0.61,0.27,0.8
			c0.13,0.19,0.28,0.33,0.45,0.41c0.16,0.08,0.38,0.12,0.64,0.12c0.24,0,0.46-0.05,0.66-0.15c0.21-0.1,0.41-0.24,0.61-0.42l0.4,0.48
			c-0.42,0.41-0.82,0.71-1.2,0.89c-0.38,0.18-0.77,0.28-1.17,0.28c-0.77,0-1.33-0.23-1.71-0.68c-0.37-0.45-0.56-1.16-0.56-2.13
			v-4.93h-1.31V187.17z"/>
		<path class="st0" d="M300.98,187.17c0.29-0.05,0.53-0.13,0.72-0.25c0.18-0.12,0.33-0.27,0.43-0.46c0.1-0.19,0.19-0.42,0.24-0.7
			c0.06-0.28,0.12-0.69,0.19-1.23h1.26v2.19h2.87v0.9h-2.87v3.95c0,0.57,0.02,1.03,0.07,1.37c0.05,0.34,0.14,0.61,0.27,0.8
			c0.13,0.19,0.28,0.33,0.45,0.41c0.16,0.08,0.38,0.12,0.64,0.12c0.24,0,0.46-0.05,0.67-0.15c0.21-0.1,0.41-0.24,0.61-0.42l0.4,0.48
			c-0.42,0.41-0.82,0.71-1.2,0.89c-0.38,0.18-0.76,0.28-1.17,0.28c-0.77,0-1.33-0.23-1.71-0.68c-0.37-0.45-0.56-1.16-0.56-2.13
			v-4.93h-1.31V187.17z"/>
		<path class="st0" d="M310.05,188.12l0.03,0.01c0.46-0.47,0.83-0.8,1.1-0.98c0.27-0.19,0.54-0.33,0.8-0.42
			c0.26-0.09,0.55-0.14,0.85-0.14c0.33,0,0.62,0.04,0.87,0.12c0.25,0.08,0.48,0.19,0.67,0.35c0.19,0.16,0.35,0.35,0.47,0.58
			c0.12,0.23,0.21,0.5,0.27,0.82c0.06,0.32,0.09,0.72,0.09,1.2v3.35c0,0.52,0.02,0.87,0.07,1.05c0.04,0.19,0.12,0.33,0.24,0.44
			c0.12,0.1,0.35,0.2,0.7,0.3v0.44h-3.5v-0.44c0.23-0.07,0.4-0.13,0.5-0.19c0.1-0.05,0.18-0.13,0.25-0.22
			c0.07-0.09,0.12-0.24,0.16-0.44c0.04-0.2,0.06-0.5,0.06-0.9v-2.33c0-0.79-0.04-1.39-0.12-1.81c-0.08-0.42-0.24-0.73-0.47-0.94
			c-0.23-0.21-0.56-0.31-0.98-0.31c-0.24,0-0.45,0.04-0.64,0.12c-0.19,0.08-0.41,0.23-0.66,0.44c-0.25,0.21-0.44,0.43-0.56,0.66
			c-0.13,0.23-0.19,0.46-0.19,0.72v3.4c0,0.4,0.01,0.69,0.03,0.86c0.02,0.17,0.06,0.31,0.12,0.43c0.06,0.12,0.15,0.21,0.27,0.28
			c0.12,0.07,0.31,0.14,0.56,0.21v0.44h-3.52v-0.44c0.26-0.07,0.45-0.14,0.56-0.2c0.11-0.07,0.2-0.15,0.26-0.25
			c0.06-0.1,0.11-0.25,0.14-0.44c0.03-0.19,0.05-0.49,0.05-0.9v-7.43c0-0.57-0.01-0.96-0.01-1.19c-0.01-0.22-0.03-0.42-0.07-0.57
			c-0.04-0.16-0.09-0.28-0.16-0.37c-0.07-0.09-0.16-0.16-0.28-0.21c-0.11-0.05-0.32-0.11-0.63-0.16v-0.46l2.14-0.09h0.53V188.12z"/>
		<path class="st0" d="M324.8,193.7c-0.38,0.4-0.73,0.71-1.04,0.93c-0.32,0.22-0.66,0.4-1.04,0.53c-0.38,0.13-0.8,0.19-1.25,0.19
			c-1.22,0-2.14-0.36-2.76-1.1c-0.62-0.73-0.93-1.81-0.93-3.24c0-0.88,0.16-1.66,0.47-2.34c0.32-0.67,0.77-1.2,1.35-1.56
			c0.59-0.37,1.26-0.55,2.03-0.55c0.6,0,1.11,0.09,1.53,0.29c0.42,0.19,0.76,0.45,1.01,0.78c0.25,0.33,0.45,0.74,0.59,1.24
			c0.14,0.5,0.22,1.15,0.23,1.96h-5.59V191c0,0.7,0.08,1.29,0.23,1.76c0.16,0.48,0.42,0.85,0.77,1.12c0.36,0.27,0.82,0.41,1.4,0.41
			c0.48,0,0.92-0.09,1.31-0.27c0.39-0.18,0.77-0.47,1.16-0.88L324.8,193.7z M323.31,190.1c-0.04-0.64-0.12-1.16-0.24-1.57
			c-0.12-0.41-0.31-0.72-0.56-0.93c-0.25-0.22-0.57-0.32-0.98-0.32c-0.61,0-1.1,0.24-1.46,0.73c-0.36,0.49-0.58,1.19-0.64,2.09
			H323.31z"/>
		<path class="st0" d="M333.5,189.95v3.02c0,0.43,0.02,0.74,0.05,0.93c0.03,0.19,0.08,0.34,0.14,0.44c0.07,0.1,0.16,0.18,0.27,0.24
			c0.11,0.06,0.3,0.13,0.58,0.21v0.44h-3.75v-0.44c0.37-0.09,0.61-0.2,0.74-0.31c0.12-0.12,0.21-0.28,0.24-0.49
			c0.04-0.21,0.06-0.54,0.06-0.98v-7.68c0-0.41-0.01-0.71-0.04-0.89c-0.03-0.19-0.08-0.33-0.15-0.44c-0.07-0.1-0.16-0.19-0.27-0.25
			c-0.11-0.06-0.3-0.13-0.58-0.21v-0.43h4.39c1.39,0,2.42,0.25,3.11,0.75c0.69,0.5,1.03,1.29,1.03,2.34c0,0.81-0.22,1.5-0.67,2.07
			c-0.45,0.57-1.12,1.01-2.01,1.33v0.07c0.36,0.15,0.67,0.36,0.93,0.64c0.26,0.28,0.54,0.7,0.86,1.28l0.8,1.46
			c0.23,0.43,0.43,0.75,0.59,0.98c0.16,0.22,0.33,0.4,0.51,0.52c0.17,0.12,0.4,0.2,0.68,0.25v0.44h-2.46
			c-0.22-0.31-0.44-0.65-0.64-1.01c-0.2-0.36-0.4-0.73-0.59-1.1l-0.78-1.48c-0.24-0.45-0.43-0.78-0.58-1
			c-0.15-0.21-0.29-0.36-0.42-0.45c-0.13-0.08-0.26-0.15-0.41-0.18c-0.14-0.03-0.36-0.05-0.65-0.05H333.5z M333.5,183.91v5.28h1
			c0.52,0,0.93-0.04,1.25-0.11c0.32-0.07,0.61-0.22,0.89-0.42c0.27-0.21,0.49-0.5,0.65-0.87c0.16-0.37,0.24-0.82,0.24-1.36
			c0-0.56-0.1-1.03-0.29-1.4c-0.19-0.37-0.49-0.66-0.88-0.85c-0.39-0.19-0.92-0.29-1.58-0.29
			C334.27,183.87,333.84,183.88,333.5,183.91z"/>
		<path class="st0" d="M341.88,194.78c0.23-0.07,0.4-0.13,0.49-0.19c0.1-0.05,0.18-0.13,0.25-0.22c0.07-0.09,0.12-0.24,0.16-0.44
			c0.04-0.2,0.06-0.5,0.06-0.91v-3.87c0-0.38-0.01-0.68-0.02-0.91c-0.01-0.23-0.05-0.42-0.12-0.56c-0.07-0.14-0.18-0.24-0.32-0.31
			c-0.15-0.07-0.35-0.13-0.62-0.17v-0.47l2.07-0.08h0.54v6.35c0,0.51,0.02,0.86,0.07,1.06c0.05,0.2,0.14,0.35,0.27,0.45
			c0.13,0.1,0.35,0.19,0.65,0.27v0.44h-3.48V194.78z M344.42,183.24v1.72h-1.63v-1.72H344.42z"/>
		<path class="st0" d="M354.9,187.62l-1.64-0.06l-0.08,0.1c0.18,0.18,0.33,0.43,0.43,0.75c0.11,0.32,0.16,0.66,0.16,1.03
			c0,0.96-0.3,1.71-0.89,2.23c-0.59,0.52-1.44,0.79-2.53,0.79c-0.49,0-0.92-0.06-1.27-0.19c-0.45,0.34-0.67,0.68-0.67,1.01
			c0,0.22,0.04,0.39,0.13,0.5c0.09,0.11,0.23,0.19,0.43,0.24c0.2,0.05,0.5,0.07,0.9,0.07h2.13c0.63,0,1.14,0.1,1.54,0.29
			c0.4,0.2,0.68,0.46,0.85,0.79c0.17,0.33,0.25,0.71,0.25,1.15c0,0.56-0.16,1.05-0.48,1.49c-0.32,0.44-0.78,0.77-1.39,1.02
			c-0.6,0.24-1.31,0.36-2.11,0.36c-0.6,0-1.14-0.04-1.64-0.11c-0.49-0.07-0.92-0.19-1.27-0.36c-0.35-0.17-0.62-0.39-0.82-0.67
			c-0.19-0.28-0.29-0.62-0.29-1.03c0-0.37,0.12-0.71,0.37-1.02c0.25-0.31,0.6-0.57,1.06-0.8c-0.28-0.11-0.5-0.28-0.66-0.5
			c-0.16-0.22-0.24-0.48-0.24-0.77c0-0.34,0.1-0.65,0.28-0.93c0.19-0.28,0.53-0.6,1-0.96c-0.43-0.25-0.75-0.59-0.97-1.01
			c-0.22-0.43-0.33-0.91-0.33-1.46c0-0.51,0.08-0.95,0.25-1.33c0.17-0.38,0.4-0.69,0.7-0.93c0.3-0.25,0.65-0.43,1.06-0.55
			c0.41-0.12,0.85-0.18,1.32-0.18c0.43,0,0.85,0.05,1.27,0.15h3.15V187.62z M348.96,195.36c-0.3,0.22-0.53,0.46-0.68,0.71
			c-0.15,0.25-0.23,0.54-0.23,0.86c0,0.53,0.21,0.92,0.64,1.18c0.42,0.25,1.07,0.38,1.94,0.38c0.53,0,0.99-0.07,1.37-0.21
			c0.38-0.14,0.67-0.35,0.88-0.61c0.2-0.27,0.3-0.58,0.3-0.93c0-0.16-0.02-0.33-0.06-0.48c-0.04-0.16-0.12-0.3-0.24-0.42
			c-0.12-0.13-0.28-0.22-0.49-0.3c-0.21-0.07-0.49-0.11-0.83-0.11h-1.32C349.75,195.41,349.33,195.39,348.96,195.36z M348.74,189.42
			c0,0.74,0.15,1.31,0.45,1.71c0.3,0.4,0.74,0.6,1.3,0.6c0.3,0,0.56-0.06,0.77-0.17c0.21-0.12,0.39-0.28,0.52-0.48
			c0.13-0.2,0.23-0.43,0.29-0.7c0.06-0.26,0.09-0.54,0.09-0.83c0-0.52-0.08-0.96-0.22-1.31c-0.15-0.35-0.35-0.6-0.6-0.77
			c-0.25-0.16-0.55-0.25-0.88-0.25c-0.56,0-0.99,0.19-1.29,0.56C348.88,188.18,348.74,188.72,348.74,189.42z"/>
		<path class="st0" d="M358.18,188.12l0.04,0.01c0.46-0.47,0.83-0.8,1.1-0.98c0.27-0.19,0.54-0.33,0.8-0.42
			c0.26-0.09,0.55-0.14,0.85-0.14c0.33,0,0.62,0.04,0.87,0.12c0.25,0.08,0.48,0.19,0.67,0.35c0.19,0.16,0.35,0.35,0.47,0.58
			c0.12,0.23,0.21,0.5,0.27,0.82c0.06,0.32,0.09,0.72,0.09,1.2v3.35c0,0.52,0.02,0.87,0.07,1.05c0.04,0.19,0.12,0.33,0.24,0.44
			c0.12,0.1,0.35,0.2,0.7,0.3v0.44h-3.5v-0.44c0.23-0.07,0.4-0.13,0.5-0.19c0.1-0.05,0.18-0.13,0.25-0.22
			c0.07-0.09,0.12-0.24,0.16-0.44c0.04-0.2,0.06-0.5,0.06-0.9v-2.33c0-0.79-0.04-1.39-0.12-1.81c-0.08-0.42-0.24-0.73-0.47-0.94
			c-0.23-0.21-0.56-0.31-0.98-0.31c-0.24,0-0.45,0.04-0.64,0.12c-0.19,0.08-0.41,0.23-0.66,0.44c-0.25,0.21-0.44,0.43-0.56,0.66
			c-0.13,0.23-0.19,0.46-0.19,0.72v3.4c0,0.4,0.01,0.69,0.03,0.86c0.02,0.17,0.06,0.31,0.12,0.43c0.06,0.12,0.15,0.21,0.27,0.28
			c0.12,0.07,0.31,0.14,0.56,0.21v0.44h-3.52v-0.44c0.26-0.07,0.45-0.14,0.56-0.2c0.11-0.07,0.2-0.15,0.26-0.25
			c0.06-0.1,0.11-0.25,0.14-0.44c0.03-0.19,0.04-0.49,0.04-0.9v-7.43c0-0.57-0.01-0.96-0.01-1.19c-0.01-0.22-0.03-0.42-0.07-0.57
			c-0.04-0.16-0.09-0.28-0.16-0.37c-0.07-0.09-0.16-0.16-0.28-0.21c-0.11-0.05-0.32-0.11-0.63-0.16v-0.46l2.14-0.09h0.53V188.12z"/>
		<path class="st0" d="M365.3,187.17c0.29-0.05,0.54-0.13,0.72-0.25c0.18-0.12,0.33-0.27,0.43-0.46c0.1-0.19,0.19-0.42,0.24-0.7
			c0.06-0.28,0.12-0.69,0.19-1.23h1.26v2.19h2.87v0.9h-2.87v3.95c0,0.57,0.02,1.03,0.07,1.37c0.05,0.34,0.14,0.61,0.27,0.8
			c0.13,0.19,0.28,0.33,0.45,0.41c0.16,0.08,0.38,0.12,0.64,0.12c0.24,0,0.46-0.05,0.67-0.15c0.21-0.1,0.41-0.24,0.61-0.42l0.4,0.48
			c-0.42,0.41-0.82,0.71-1.2,0.89c-0.38,0.18-0.76,0.28-1.17,0.28c-0.77,0-1.33-0.23-1.71-0.68c-0.37-0.45-0.56-1.16-0.56-2.13
			v-4.93h-1.31V187.17z"/>
		<path class="st0" d="M378.91,192.97c0,0.35,0.02,0.63,0.06,0.84c0.04,0.21,0.1,0.37,0.18,0.49c0.08,0.12,0.19,0.21,0.33,0.28
			c0.14,0.07,0.35,0.14,0.64,0.2v0.44h-3.9v-0.44c0.37-0.09,0.61-0.2,0.74-0.31c0.12-0.12,0.21-0.28,0.24-0.49
			c0.04-0.21,0.06-0.54,0.06-0.98v-7.68c0-0.41-0.02-0.71-0.04-0.89c-0.03-0.19-0.08-0.33-0.15-0.44c-0.07-0.1-0.16-0.19-0.27-0.25
			c-0.11-0.06-0.3-0.13-0.58-0.21v-0.43h4.4c1.39,0,2.42,0.27,3.09,0.79c0.68,0.53,1.02,1.34,1.02,2.42c0,0.62-0.11,1.17-0.32,1.66
			c-0.21,0.49-0.51,0.89-0.91,1.21c-0.39,0.31-0.85,0.54-1.39,0.68c-0.53,0.14-1.09,0.2-1.68,0.2c-0.66,0-1.17-0.01-1.53-0.04
			V192.97z M378.91,189.28h1.03c0.67,0,1.22-0.09,1.65-0.26c0.44-0.17,0.77-0.46,1-0.87c0.23-0.41,0.35-0.94,0.35-1.61
			c0-0.51-0.07-0.93-0.21-1.27c-0.14-0.34-0.32-0.61-0.56-0.82c-0.24-0.21-0.52-0.35-0.86-0.44c-0.33-0.09-0.69-0.13-1.08-0.13
			c-0.59,0-1.03,0.01-1.32,0.04V189.28z"/>
		<path class="st0" d="M388.72,188.2l0.12,0.03c0.33-0.4,0.63-0.71,0.91-0.94c0.28-0.23,0.58-0.4,0.9-0.53
			c0.32-0.12,0.69-0.19,1.1-0.19c0.34,0,0.66,0.02,0.93,0.05v2.04h-1c-0.14-0.32-0.29-0.55-0.45-0.7c-0.16-0.14-0.38-0.22-0.66-0.22
			c-0.21,0-0.42,0.06-0.63,0.19c-0.21,0.12-0.41,0.31-0.61,0.54c-0.2,0.24-0.33,0.46-0.41,0.67c-0.07,0.21-0.11,0.45-0.11,0.74v3.11
			c0,0.54,0.03,0.91,0.1,1.11c0.07,0.21,0.17,0.35,0.33,0.45c0.15,0.1,0.38,0.17,0.68,0.22v0.44h-3.58v-0.44
			c0.22-0.07,0.39-0.13,0.48-0.19c0.1-0.05,0.18-0.13,0.25-0.22c0.07-0.09,0.12-0.24,0.16-0.44c0.03-0.2,0.05-0.5,0.05-0.91v-3.87
			c0-0.38-0.01-0.68-0.02-0.91c-0.01-0.23-0.05-0.42-0.12-0.56c-0.07-0.14-0.18-0.24-0.32-0.31c-0.15-0.07-0.35-0.13-0.62-0.17
			v-0.46l2.08-0.09h0.54L388.72,188.2z"/>
		<path class="st0" d="M393.85,194.78c0.23-0.07,0.4-0.13,0.49-0.19c0.1-0.05,0.18-0.13,0.25-0.22c0.07-0.09,0.12-0.24,0.16-0.44
			c0.04-0.2,0.06-0.5,0.06-0.91v-3.87c0-0.38-0.01-0.68-0.02-0.91c-0.01-0.23-0.05-0.42-0.12-0.56c-0.07-0.14-0.18-0.24-0.32-0.31
			c-0.15-0.07-0.35-0.13-0.62-0.17v-0.47l2.07-0.08h0.54v6.35c0,0.51,0.02,0.86,0.07,1.06c0.05,0.2,0.14,0.35,0.27,0.45
			c0.13,0.1,0.35,0.19,0.65,0.27v0.44h-3.48V194.78z M396.39,183.24v1.72h-1.63v-1.72H396.39z"/>
		<path class="st0" d="M405.52,186.93v1.86h-1.13c-0.1-0.39-0.22-0.69-0.37-0.91c-0.15-0.22-0.32-0.38-0.52-0.47
			c-0.2-0.09-0.44-0.13-0.73-0.13c-0.42,0-0.78,0.13-1.1,0.4c-0.32,0.27-0.57,0.67-0.76,1.22c-0.19,0.54-0.28,1.21-0.28,2
			c0,0.5,0.04,0.96,0.11,1.38c0.07,0.42,0.19,0.77,0.36,1.07c0.17,0.3,0.4,0.53,0.68,0.69c0.29,0.17,0.64,0.25,1.06,0.25
			c0.41,0,0.79-0.08,1.14-0.24c0.35-0.16,0.72-0.44,1.1-0.84l0.51,0.59c-0.3,0.33-0.57,0.59-0.8,0.77
			c-0.23,0.18-0.48,0.33-0.74,0.45c-0.26,0.12-0.53,0.21-0.78,0.27c-0.26,0.06-0.54,0.08-0.84,0.08c-1.12,0-1.97-0.37-2.57-1.11
			c-0.59-0.74-0.89-1.82-0.89-3.22c0-0.88,0.17-1.65,0.5-2.33c0.33-0.68,0.8-1.2,1.39-1.57c0.6-0.37,1.29-0.55,2.07-0.55
			c0.49,0,0.93,0.03,1.35,0.08C404.69,186.71,405.1,186.8,405.52,186.93z"/>
		<path class="st0" d="M414.02,193.7c-0.38,0.4-0.73,0.71-1.04,0.93c-0.32,0.22-0.67,0.4-1.04,0.53c-0.38,0.13-0.8,0.19-1.25,0.19
			c-1.22,0-2.14-0.36-2.76-1.1c-0.62-0.73-0.93-1.81-0.93-3.24c0-0.88,0.16-1.66,0.47-2.34c0.32-0.67,0.77-1.2,1.35-1.56
			c0.58-0.37,1.26-0.55,2.03-0.55c0.6,0,1.11,0.09,1.53,0.29c0.42,0.19,0.76,0.45,1.01,0.78c0.25,0.33,0.45,0.74,0.59,1.24
			c0.14,0.5,0.22,1.15,0.23,1.96h-5.59V191c0,0.7,0.08,1.29,0.23,1.76c0.16,0.48,0.42,0.85,0.77,1.12c0.36,0.27,0.82,0.41,1.4,0.41
			c0.49,0,0.92-0.09,1.31-0.27c0.39-0.18,0.77-0.47,1.16-0.88L414.02,193.7z M412.52,190.1c-0.04-0.64-0.12-1.16-0.24-1.57
			c-0.12-0.41-0.31-0.72-0.56-0.93c-0.25-0.22-0.57-0.32-0.98-0.32c-0.61,0-1.1,0.24-1.46,0.73c-0.36,0.49-0.58,1.19-0.64,2.09
			H412.52z"/>
	</g>
	<g>
		<path class="st1" d="M483.92,176.81v2.15h-4.94v2.81h3.79v2.07h-3.79v2.87h4.94v2.15h-7.75v-12.05H483.92z"/>
		<path class="st1" d="M492.22,179.25c-0.08,0.13-0.17,0.23-0.26,0.3c-0.09,0.07-0.21,0.1-0.35,0.1c-0.13,0-0.26-0.04-0.41-0.12
			c-0.15-0.08-0.31-0.17-0.5-0.27c-0.19-0.1-0.4-0.19-0.63-0.27c-0.24-0.08-0.51-0.12-0.81-0.12c-0.52,0-0.91,0.11-1.17,0.34
			c-0.26,0.22-0.38,0.53-0.38,0.91c0,0.24,0.08,0.44,0.23,0.6c0.16,0.16,0.36,0.3,0.61,0.41c0.25,0.12,0.54,0.22,0.86,0.32
			c0.32,0.1,0.65,0.21,0.99,0.32c0.33,0.12,0.66,0.26,0.99,0.42c0.32,0.16,0.61,0.36,0.86,0.61c0.25,0.25,0.45,0.55,0.61,0.91
			c0.15,0.36,0.23,0.79,0.23,1.29c0,0.56-0.1,1.08-0.29,1.56c-0.19,0.48-0.47,0.91-0.84,1.27c-0.37,0.36-0.82,0.65-1.36,0.85
			c-0.54,0.21-1.15,0.31-1.83,0.31c-0.37,0-0.76-0.04-1.15-0.11c-0.39-0.08-0.77-0.19-1.13-0.33c-0.36-0.14-0.71-0.31-1.03-0.5
			c-0.32-0.19-0.6-0.41-0.83-0.65l0.83-1.31c0.06-0.1,0.15-0.18,0.26-0.24c0.11-0.06,0.23-0.09,0.36-0.09c0.16,0,0.33,0.05,0.5,0.16
			c0.17,0.1,0.36,0.22,0.57,0.35c0.21,0.13,0.46,0.24,0.73,0.35c0.28,0.1,0.6,0.16,0.98,0.16c0.51,0,0.9-0.11,1.18-0.33
			c0.28-0.22,0.42-0.58,0.42-1.06c0-0.28-0.08-0.51-0.23-0.69c-0.16-0.18-0.36-0.32-0.61-0.44c-0.25-0.12-0.54-0.22-0.85-0.31
			c-0.32-0.09-0.65-0.19-0.98-0.29c-0.33-0.11-0.67-0.24-0.98-0.4c-0.32-0.16-0.6-0.36-0.85-0.62c-0.25-0.26-0.45-0.58-0.61-0.96
			c-0.16-0.38-0.23-0.86-0.23-1.42c0-0.45,0.09-0.89,0.27-1.32c0.18-0.43,0.45-0.81,0.8-1.15c0.35-0.33,0.79-0.6,1.3-0.81
			c0.51-0.2,1.1-0.3,1.76-0.3c0.37,0,0.73,0.03,1.08,0.09c0.35,0.06,0.68,0.14,1,0.26c0.31,0.11,0.61,0.25,0.88,0.41
			c0.27,0.16,0.52,0.34,0.73,0.54L492.22,179.25z"/>
		<path class="st1" d="M503.22,176.81v2.21h-3.39v9.83h-2.79v-9.83h-3.39v-2.21H503.22z"/>
		<path class="st1" d="M502.39,187.56c0-0.2,0.04-0.38,0.11-0.55c0.07-0.17,0.18-0.32,0.3-0.45c0.13-0.13,0.28-0.23,0.46-0.3
			c0.18-0.07,0.37-0.11,0.58-0.11c0.2,0,0.39,0.04,0.57,0.11c0.18,0.08,0.33,0.17,0.46,0.3c0.13,0.13,0.24,0.28,0.31,0.45
			c0.08,0.17,0.11,0.36,0.11,0.55c0,0.2-0.04,0.39-0.11,0.56c-0.07,0.17-0.18,0.32-0.31,0.45c-0.13,0.13-0.29,0.22-0.46,0.3
			c-0.18,0.07-0.37,0.11-0.57,0.11c-0.21,0-0.4-0.04-0.58-0.11c-0.18-0.07-0.33-0.17-0.46-0.3c-0.13-0.13-0.23-0.28-0.3-0.45
			C502.43,187.94,502.39,187.76,502.39,187.56z"/>
		<path class="st1" d="M511.08,187h2.32v-6.08c0-0.3,0.01-0.61,0.03-0.93l-1.36,1.13c-0.09,0.07-0.18,0.12-0.27,0.15
			c-0.09,0.03-0.17,0.04-0.26,0.04c-0.14,0-0.27-0.03-0.39-0.09c-0.11-0.06-0.2-0.13-0.25-0.2l-0.81-1.08l3.75-3.15h2.12V187h1.98
			v1.85h-6.86V187z"/>
		<path class="st1" d="M522.82,184.16c-0.39,0-0.78-0.07-1.17-0.21c-0.39-0.14-0.75-0.35-1.06-0.64c-0.32-0.29-0.57-0.65-0.77-1.08
			c-0.2-0.43-0.3-0.95-0.3-1.55c0-0.54,0.1-1.06,0.3-1.55c0.2-0.48,0.49-0.91,0.86-1.27c0.37-0.36,0.82-0.65,1.34-0.86
			c0.52-0.21,1.1-0.32,1.74-0.32c0.65,0,1.23,0.1,1.75,0.3c0.51,0.2,0.95,0.48,1.3,0.84c0.35,0.36,0.63,0.78,0.82,1.28
			c0.19,0.49,0.29,1.04,0.29,1.63c0,0.4-0.03,0.77-0.1,1.12c-0.06,0.35-0.15,0.68-0.26,1c-0.11,0.32-0.25,0.62-0.41,0.91
			c-0.16,0.29-0.34,0.58-0.54,0.86l-2.6,3.69c-0.11,0.16-0.28,0.29-0.52,0.41c-0.24,0.11-0.51,0.17-0.8,0.17h-2.37l3.82-4.56
			c0.08-0.09,0.15-0.18,0.22-0.27c0.07-0.09,0.14-0.17,0.2-0.26c-0.25,0.13-0.52,0.23-0.81,0.3
			C523.44,184.13,523.13,184.16,522.82,184.16z M525.45,180.49c0-0.29-0.04-0.55-0.13-0.77c-0.08-0.22-0.2-0.41-0.36-0.56
			c-0.15-0.15-0.33-0.26-0.55-0.34c-0.22-0.08-0.45-0.11-0.71-0.11c-0.26,0-0.49,0.04-0.69,0.13c-0.2,0.09-0.37,0.22-0.51,0.38
			c-0.14,0.16-0.25,0.35-0.32,0.57c-0.07,0.22-0.11,0.45-0.11,0.71c0,1.2,0.56,1.8,1.67,1.8c0.55,0,0.97-0.16,1.27-0.49
			C525.31,181.47,525.45,181.03,525.45,180.49z"/>
		<path class="st1" d="M537.32,176.81v1.07c0,0.3-0.03,0.55-0.1,0.74c-0.07,0.19-0.13,0.35-0.19,0.48l-4.21,8.91
			c-0.11,0.24-0.27,0.44-0.49,0.6c-0.22,0.16-0.5,0.25-0.85,0.25h-1.87l4.3-8.62c0.12-0.24,0.24-0.45,0.38-0.64
			c0.14-0.19,0.28-0.37,0.44-0.54h-5.3c-0.08,0-0.15-0.02-0.22-0.04c-0.07-0.03-0.13-0.07-0.18-0.12c-0.05-0.05-0.09-0.11-0.13-0.18
			c-0.03-0.07-0.05-0.14-0.05-0.21v-1.69H537.32z"/>
		<path class="st1" d="M546.91,176.81v1.07c0,0.3-0.03,0.55-0.1,0.74c-0.07,0.19-0.13,0.35-0.19,0.48l-4.21,8.91
			c-0.11,0.24-0.27,0.44-0.49,0.6c-0.21,0.16-0.5,0.25-0.85,0.25h-1.87l4.3-8.62c0.12-0.24,0.24-0.45,0.38-0.64
			c0.14-0.19,0.28-0.37,0.44-0.54h-5.3c-0.08,0-0.15-0.02-0.22-0.04c-0.07-0.03-0.13-0.07-0.18-0.12c-0.05-0.05-0.09-0.11-0.13-0.18
			c-0.03-0.07-0.05-0.14-0.05-0.21v-1.69H546.91z"/>
	</g>
</g>
<path class="st2" d="M135.1,157.87"/>
<g>
	<path class="st3" d="M68.13,17.34"/>
	<path class="st0" d="M80.47,111.03L77.01,75.2c0,0-4.89-32.79-4.27-33.2l0.99-1.31c0,0,1.41,0.37,2.27,2.67
		c0,0,0.49,0.96,1.35,1.28c0,0,5.19-4.9,11.51-6.9c0,0,0.67-0.35-3.25-2.48c0,0-1.41-0.91-3.05-0.86c0,0-3.98-0.19-4.88-3
		c0,0-2.23-9.08-2.63-8.12c0,0,2.13,8.49,0.99,8.88c0,0-1.29,0.8-4.6-0.31c0,0-1.72-15.96-3.29-14.17l-0.04,0.8
		c0,0-1.9,25.79-13.48,56.67c-8.78,23.4-23.1,49.18-46.32,68c0,0,0.18,0.81,1.23,0.98c0,0,30.61,4.31,54.95,3.78
		c0,0,15.41-1.36,16.8-0.99c0,0,1.54-1.55,1.17-8.03l0.13-4.16l6.76-3.41c0,0,1.41-0.87,1.53,0.74c0,0,1.2,11.02,0.73,15.16
		c0,0-0.07,0.32-3.11,0.92c0,0-21.66,5.25-24.62,2.7c0,0-27.4,7.22-28.35,8.74c-0.16,0.25-0.63,1.8-0.63,1.8
		c-0.29,0.71-1.26-0.32-1.26-0.32s-2.2-1.71-3.44,0.3c0,0-1,1.79-1.61,3.76c0,0-0.91,3.05-3.84,2.3c0,0-11.87-4.37-22.99,4.45
		c0,0,1.37,0.23,8.29-1.83c0,0,7.61-2.44,19.34,1.63c0,0,5.3,2.06,15.52,0.88c0,0,1.57-0.11,4.21-1.59c0,0,7.11-3.76,8.59-4.33
		c0,0,2.25-1.26,7.2-0.88c0,0,2.25,0.04,9.45,1.68c0,0,4.08,0.86,5.16,0.25c0,0,2.9-1.34,7.57,0.89c0,0,7.95,4.21,8.27,4.25
		l47.1,0.04l0.9-0.61c0,0-4.68,0.46-12.89-1.16c0,0-8.85-2.06-15-1.17c0,0-2.01,0.34-3.78,0.82c0,0-2.16,0.78-4.82,0.49
		c0,0-4.03,0.21-6.49-2.33c0,0,2.66-3.92,4.74-8.19c0,0,2.46-4.99,4.26-7.46c0,0,2.06-2.77,3.82-4.72c0,0,0.28-0.33,0.27-0.6
		c-0.1-2.72-19.21-1.06-19.21-1.06s-0.62,0.14-0.78-0.64c0,0-0.79-9.82-0.95-15.15c-0.05-1.63,2.43-2.38,3.03-2.56
		c0.1-0.03,1.58-0.41,1.69-0.43c4.48-0.86,8.38-1.81,15.83-1.52c0,0,7.63-0.08,11.11,5.76c0,0,2.88,5.17-1.36,11.46l0.17-0.25
		c0,0-3.97,5.95-4.16,6.19c-0.19,0.24,5.09-1.37,8.42-4.32c0,0,4.41-3.49,7.2-8.09c0,0,2.86-4.83,2.73-9.29c0,0,0.42-4.48-2.24-8.94
		c0,0-2.72-5.92-15.34-8.89c0,0-8.34-1.71-16.48,0.03c0,0-5.19,0.54-10.53,2.87c0,0-2.73,1.23-5.19,2.67
		c-1.08,0.64-1.65,1.15-3.36,1.87c-0.9,0.38-1.79,0.43-2.57-0.61c0,0-0.6-0.64-0.79-2.9C80.47,111.86,80.47,111.03,80.47,111.03z"/>
	<path class="st3" d="M66.16,1.51l2.3,8.24c0,0,8.48-1.36,16.44-5.58c0,0,0.79-0.49-1.87-1.5c0,0-0.71-0.25-0.76-0.79L66.16,1.51z"
		/>
	<path class="st3" d="M81.65,51.67l1.68-1.41c0,0,12.22-10.65,25.09-3.26c0,0,2.2,1.08,7.37,6.18c0,0-15.6-4.01-31.18,9.49
		c0,0-0.83,0.73-1.47-0.52c-0.63-1.23-1.46-3.04-2.19-5.72C80.97,56.42,80.04,53.17,81.65,51.67z"/>
	<path class="st3" d="M84.86,74.1c0,0,0.07-1.11,0.58-1.65c2.19-2.37,12.84-11.08,29.34-10.12c0,0,6.43,0.23,10.2,2
		c0,0,1.68,0.49,5.29,3.99c0,0,3.82,3.65,6.91,10.37c0,0,0.88,1.93,0,2.41c0,0-8.4-9.64-25.92-6.93c0,0-7.72,0.07-23.49,10
		c0,0-1.26,0.87-1.74-0.5C85.49,82.18,84.36,79.74,84.86,74.1z"/>
	<path class="st3" d="M85.3,98.55c0,0,0-3.49,4.22-5.96c0,0,4.27-2.82,8.45-4.3c0,0,6.19-3.33,18.53-4.05c0,0,7.07-0.17,12.78,1.89
		c0,0,6.72,1.49,12.59,10.4c0,0,4.83,5.89,1.54,19.76c0,0-1.33-10.44-12.08-15.27c0,0-2.64-1.68-13.22-2.56
		c0,0-7.54-0.35-16.35,2.75c0,0-7.13,2.4-9.75,3.91c0,0-2.98,1.44-4.39,2.26c0,0-1.52,0.91-1.91-0.44c0,0-0.44-0.8-0.42-3.73
		L85.3,98.55z"/>
</g>
<path class="st4" d="M30.66,167.57c0,0,6.24-3.19,9.22-3.53c0,0,1.32-0.17,1.72-0.89c0,0,0.8-1.49,8.16-3.24
	c0,0,22.35-8,46.47-10.06c0,0,3.41-2.81,12.67-1.67c0,0,0.26,1.52-2.96,4.6c0,0-7.47,0.71-16.7,0.9c0,0-1.04-0.19-5.32,0.49
	c-4.28,0.68-1.89,0.24-11.36,2.15c0,0-3.33,0.87-7.07,1.07c0,0-0.9,1.37-2.5,1.23c-1.6-0.13-3.3,0.62-4.79,1.59
	c0,0-9.46,2.76-14.98,4.95c0,0-5.61,2.09-8.31,4.39l-0.58-0.91C34.35,168.62,31.32,169.06,30.66,167.57z"/>
<path class="st4" d="M77.67,163.24c0,0,0.26-1.22,3.23-1.69c0,0,1.12,0.42,3.35-0.61c0,0,7.03-1.99,17.1-1.31
	c0,0,0.21,4.64-5.26,8.88c0,0-1.94-2.28-9.81-3.33c0,0-2.99-0.13-5.64-1.27c0,0-0.56,0.59-1.48,0.04L77.67,163.24z"/>
</svg>
