<?xml version="1.0" encoding="UTF-8" standalone="no"?>
<!-- Created with Inkscape (http://www.inkscape.org/) -->

<svg
   version="1.1"
   id="svg2"
   width="2000"
   height="1893.8933"
   viewBox="0 0 2000 1893.8933"
   sodipodi:docname="Swans-23-24-Primary-Logo-CC.ai"
   xmlns:inkscape="http://www.inkscape.org/namespaces/inkscape"
   xmlns:sodipodi="http://sodipodi.sourceforge.net/DTD/sodipodi-0.dtd"
   xmlns="http://www.w3.org/2000/svg"
   xmlns:svg="http://www.w3.org/2000/svg">
  <defs
     id="defs6">
    <clipPath
       clipPathUnits="userSpaceOnUse"
       id="clipPath16">
      <path
         d="M 0,1420.424 H 1500 V 0 H 0 Z"
         id="path14" />
    </clipPath>
  </defs>
  <sodipodi:namedview
     id="namedview4"
     pagecolor="#ffffff"
     bordercolor="#000000"
     borderopacity="0.25"
     inkscape:showpageshadow="2"
     inkscape:pageopacity="0.0"
     inkscape:pagecheckerboard="0"
     inkscape:deskcolor="#d1d1d1" />
  <g
     id="g8"
     inkscape:groupmode="layer"
     inkscape:label="Swans-23-24-Primary-Logo-CC"
     transform="matrix(1.3333333,0,0,-1.3333333,0,1893.8933)">
    <g
       id="g10">
      <g
         id="g12"
         clip-path="url(#clipPath16)">
        <g
           id="g18"
           transform="translate(1210.7627,657.2375)">
          <path
             d="m 0,0 c 0,0 -125.463,71.791 -252.934,18.112 -127.478,-53.671 -226.776,-222.743 -298.568,-268.361 -69.774,-44.285 -133.505,-36.233 -133.505,-36.233 0,0 171.747,-78.501 285.14,-12.746 132.172,76.485 152.293,164.372 246.223,232.137 C -55.688,2.684 0,0 0,0"
             style="fill:#2e2a25;fill-opacity:1;fill-rule:nonzero;stroke:none"
             id="path20" />
        </g>
        <g
           id="g22"
           transform="translate(1014.8535,770.6228)">
          <path
             d="M 0,0 C 0,0 -125.462,71.791 -252.934,18.112 -380.413,-35.559 -479.71,-204.63 -551.493,-250.25 c -69.783,-44.285 -133.514,-36.233 -133.514,-36.233 0,0 165.713,-84.536 279.097,-18.787 132.172,76.484 158.337,170.414 251.599,238.18 C -55.688,2.684 0,0 0,0"
             style="fill:#2e2a25;fill-opacity:1;fill-rule:nonzero;stroke:none"
             id="path24" />
        </g>
        <g
           id="g26"
           transform="translate(818.9453,884.0076)">
          <path
             d="m 0,0 c 0,0 -125.462,71.792 -252.933,18.113 -127.48,-53.671 -226.777,-222.743 -298.56,-268.37 -69.783,-44.277 -133.514,-36.225 -133.514,-36.225 0,0 165.713,-84.536 279.097,-18.788 132.172,76.484 158.336,170.414 251.599,238.18 C -56.354,2.684 0,0 0,0"
             style="fill:#2e2a25;fill-opacity:1;fill-rule:nonzero;stroke:none"
             id="path28" />
        </g>
        <g
           id="g30"
           transform="translate(1170.5059,978.6077)">
          <path
             d="m 0,0 c -88.563,48.978 -136.865,74.476 -207.981,112.042 -46.294,26.84 -69.783,37.576 -99.298,77.16 -35.558,65.073 -8.052,118.077 -8.052,118.077 77.151,148.275 364.983,-103.316 364.983,-103.316 25.49,-15.437 28.849,-3.359 17.438,20.797 -15.429,32.199 -30.858,57.697 -30.858,57.697 59.706,75.817 -50.994,114.726 -50.994,114.726 -294.534,109.358 -375.711,-34.217 -375.711,-34.217 -30.191,-35.558 -53.679,-130.154 -20.13,-209.322 48.978,-114.06 175.783,-185.852 358.274,-275.08 293.192,-142.908 55.013,-346.196 55.013,-346.196 168.405,71.116 203.288,161.695 195.911,238.846 C 185.843,-91.246 0,0 0,0"
             style="fill:#2e2a25;fill-opacity:1;fill-rule:nonzero;stroke:none"
             id="path32" />
        </g>
        <g
           id="g34"
           transform="translate(23.7686,512.593)">
          <path
             d="m 0,0 7.155,-14.128 c -12.877,-6.513 -15.1,-18.088 -6.916,-34.249 7.87,-15.544 17.643,-20.451 28.947,-14.729 11.452,5.804 13.296,15.404 6.026,36.381 -9.088,26.148 -5.384,39.461 12.976,48.756 20.409,10.332 37.674,2.708 49.834,-21.299 11.921,-23.546 7.599,-40.72 -13.28,-51.283 l -7.155,14.119 c 12.408,6.283 14.795,16.36 7.328,31.113 C 77.521,9.278 67.502,14.268 56.676,8.784 45.998,3.375 44.318,-5.755 51.102,-24.996 60.833,-52.403 56.98,-66.589 37.509,-76.436 16.639,-87.007 -0.074,-79.695 -12.711,-54.741 -25.588,-29.318 -21.504,-10.885 0,0"
             style="fill:#2e2a25;fill-opacity:1;fill-rule:nonzero;stroke:none"
             id="path36" />
        </g>
        <g
           id="g38"
           transform="translate(233.1221,343.1575)">
          <path
             d="m 0,0 -114.883,-46.401 -9.756,12.925 58.52,76.37 -89.583,-35.229 -9.649,12.777 76.081,97.791 9.863,-13.065 -59.968,-75.916 90.183,35.903 9.328,-12.357 -59.392,-77.258 89.722,37.098 z"
             style="fill:#2e2a25;fill-opacity:1;fill-rule:nonzero;stroke:none"
             id="path40" />
        </g>
        <g
           id="g42"
           transform="translate(235.5278,222.9954)">
          <path
             d="M 0,0 -35.789,32.282 -64.382,16.861 -76.525,27.819 35.97,87.409 47.858,76.69 0.132,-41.337 -12.407,-30.025 Z M -22.336,39.576 5.878,14.128 28.173,67.206 Z"
             style="fill:#2e2a25;fill-opacity:1;fill-rule:nonzero;stroke:none"
             id="path44" />
        </g>
        <g
           id="g46"
           transform="translate(411.5376,208.8381)">
          <path
             d="m 0,0 -63.353,-101.438 -13.123,8.2 1.523,112.676 -51.052,-81.745 -12.975,8.101 63.352,101.438 15.956,-9.969 -1.474,-106.28 48.171,77.119 z"
             style="fill:#2e2a25;fill-opacity:1;fill-rule:nonzero;stroke:none"
             id="path48" />
        </g>
        <g
           id="g50"
           transform="translate(405.606,116.1516)">
          <path
             d="m 0,0 14.638,-6.035 c -5.499,-13.329 0.371,-23.546 17.116,-30.453 16.096,-6.636 26.708,-3.969 31.533,7.739 4.89,11.863 0.016,20.343 -19.166,31.49 C 20.163,16.605 14.284,29.111 22.13,48.138 30.841,69.28 48.896,74.771 73.775,64.514 98.162,54.461 106.098,38.629 97.182,17.01 L 82.543,23.044 C 87.837,35.888 83.071,45.084 67.79,51.382 52.667,57.614 41.823,54.856 37.205,43.635 32.644,32.578 37.328,24.559 55.021,14.416 80.28,0.008 86.603,-13.255 78.295,-33.418 69.379,-55.046 51.95,-60.413 26.09,-49.752 -0.247,-38.893 -9.188,-22.278 0,0"
             style="fill:#2e2a25;fill-opacity:1;fill-rule:nonzero;stroke:none"
             id="path52" />
        </g>
        <g
           id="g54"
           transform="translate(599.21,32.6614)">
          <path
             d="M 0,0 -3.433,-14.013 -81.177,5.047 -52.699,121.23 23.332,102.591 19.899,88.587 -40.753,103.455 -49.505,67.74 2.602,54.963 -0.832,40.959 -52.946,53.736 -62.365,15.288 Z"
             style="fill:#2e2a25;fill-opacity:1;fill-rule:nonzero;stroke:none"
             id="path56" />
        </g>
        <g
           id="g58"
           transform="translate(629.46,12.5911)">
          <path
             d="m 0,0 16.293,-1.441 13.543,29.548 48.015,-4.215 8.192,-31.45 16.82,-1.482 -32.981,122.976 -15.956,1.399 z M 36.184,42.029 59.87,94.506 74.039,38.703 Z"
             style="fill:#2e2a25;fill-opacity:1;fill-rule:nonzero;stroke:none"
             id="path60" />
        </g>
        <g
           id="g62"
           transform="translate(831.7061,52.3391)">
          <path
             d="M 0,0 -4.224,28.889 C -8.776,60.043 3.384,77.817 33.146,82.165 60.99,86.231 77.25,74.747 82.305,47.396 L 66.983,45.157 C 63.451,63.303 53.325,70.54 35.229,67.896 15.388,64.999 8.159,53.629 11.493,30.832 L 15.609,2.634 c 3.335,-22.797 13.511,-31.622 33.353,-28.725 18.096,2.643 25.727,12.474 23.957,30.701 L 88.232,6.85 C 91.18,-20.632 78.896,-36.291 51.045,-40.358 21.282,-44.705 4.545,-31.154 0,0"
             style="fill:#2e2a25;fill-opacity:1;fill-rule:nonzero;stroke:none"
             id="path64" />
        </g>
        <g
           id="g66"
           transform="translate(941.3018,147.8792)">
          <path
             d="m 0,0 15.28,4.141 31.261,-115.467 -15.28,-4.142 z"
             style="fill:#2e2a25;fill-opacity:1;fill-rule:nonzero;stroke:none"
             id="path68" />
        </g>
        <g
           id="g70"
           transform="translate(1068.9072,176.717)">
          <path
             d="m 0,0 -32.933,-12.909 38.341,-97.782 -14.753,-5.781 -38.333,97.784 -32.915,-12.902 -5.327,13.593 80.584,31.59 z"
             style="fill:#2e2a25;fill-opacity:1;fill-rule:nonzero;stroke:none"
             id="path72" />
        </g>
        <g
           id="g74"
           transform="translate(1155.4004,162.3792)">
          <path
             d="m 0,0 25.242,-44.326 -13.757,-7.83 -25.234,44.326 -70.778,38.638 16.053,9.138 53.968,-29.383 2.124,61.319 15.288,8.702 z"
             style="fill:#2e2a25;fill-opacity:1;fill-rule:nonzero;stroke:none"
             id="path76" />
        </g>
        <g
           id="g78"
           transform="translate(1326.6729,269.1028)">
          <path
             d="M 0,0 -34.933,-33.212 -21.752,-62.908 -33.607,-74.179 -84.404,42.572 -72.805,53.604 41.23,-3.03 28.996,-14.671 Z m -41.182,-19.24 27.539,26.18 -51.216,26.304 z"
             style="fill:#2e2a25;fill-opacity:1;fill-rule:nonzero;stroke:none"
             id="path80" />
        </g>
        <g
           id="g82"
           transform="translate(1322.5137,376.5842)">
          <path
             d="M 0,0 29.17,-22.369 60.85,18.943 72.294,10.176 40.613,-31.138 83.458,-63.986 73.833,-76.55 -21.076,-3.787 25.58,57.063 37.023,48.294 Z"
             style="fill:#2e2a25;fill-opacity:1;fill-rule:nonzero;stroke:none"
             id="path84" />
        </g>
        <g
           id="g86"
           transform="translate(1425.9072,417.6545)">
          <path
             d="m 0,0 -25.604,14.038 c -27.614,15.132 -34.481,35.55 -20.023,61.92 13.534,24.683 32.495,30.741 57.375,18.31 L 4.306,80.691 c -16.622,8.102 -28.494,4.38 -37.28,-11.666 -9.648,-17.585 -4.915,-30.198 15.289,-41.271 L 7.303,14.054 C 27.515,2.98 40.687,5.788 50.319,23.374 59.12,39.42 55.877,51.424 40.251,60.99 l 7.442,13.576 C 71.404,60.364 76.5,41.124 62.974,16.441 48.517,-9.937 27.621,-15.132 0,0"
             style="fill:#2e2a25;fill-opacity:1;fill-rule:nonzero;stroke:none"
             id="path88" />
        </g>
      </g>
    </g>
  </g>
</svg>
